<?xml version="1.0" encoding="utf-8"?>
<!-- Generator: Adobe Illustrator 19.2.0, SVG Export Plug-In . SVG Version: 6.00 Build 0)  -->
<svg version="1.1" id="Слой_1" xmlns="http://www.w3.org/2000/svg" xmlns:xlink="http://www.w3.org/1999/xlink" x="0px" y="0px"
	 viewBox="0 0 1000 1000" style="enable-background:new 0 0 1000 1000;" xml:space="preserve" fill-opacity=".1">
<style type="text/css">
	.st0{fill:#7A5C99;enable-background:new    ;}
	.st1{fill:#73B3CF;enable-background:new    ;}
	.st2{fill:#71568B;enable-background:new    ;}
	.st3{fill:#6799CB;enable-background:new    ;}
	.st4{display:none;fill:#FFFFFF;}
	.st5{font-family:'Lato-Heavy';}
	.st6{font-size:21.6006px;}
	.st7{font-size:57.5796px;}
	.st8{fill:#6B965B;enable-background:new    ;}
	.st9{fill:#648655;enable-background:new    ;}
</style>
<rect x="-92.8" y="376.9" transform="matrix(0.7071 -0.7071 0.7071 0.7071 -258.5368 198.2672)" class="st0" width="405.7" height="68.5"/>
<rect x="-117.9" y="585.8" transform="matrix(0.7071 -0.7071 0.7071 0.7071 -385.1258 310.1328)" class="st1" width="599.4" height="68.2"/>
<rect x="290.5" y="207.6" transform="matrix(0.7071 -0.7071 0.7071 0.7071 -75.2912 289.4877)" class="st0" width="42.7" height="56.1"/>
<rect x="404.6" y="321.8" transform="matrix(0.7071 -0.7071 0.7071 0.7071 -122.5734 403.637)" class="st1" width="42.7" height="55.9"/>
<path class="st2" d="M316.7,270.6c-13.2-13.2-26.4-26.4-39.6-39.6c-15.9,4.2-31.8,8.4-47.7,12.7c16.1,16.1,32.3,32.3,48.4,48.4
	C290.7,284.9,303.7,277.8,316.7,270.6z"/>
<path class="st3" d="M430.4,384.4c-13.1-13.1-26.3-26.3-39.4-39.4c-7.2,12.9-14.3,25.9-21.5,38.8c16.1,16.1,32.1,32.1,48.2,48.2
	C421.9,416.1,426.2,400.3,430.4,384.4z"/>
<path class="st2" d="M376.8,224.2c-10.9-10.9-21.8-21.8-32.6-32.6c-12.5,2.9-25.1,5.8-37.6,8.7c13.3,13.3,26.6,26.6,39.9,39.9
	C356.6,234.9,366.7,229.5,376.8,224.2z"/>
<path class="st3" d="M469.7,317.1c-10.8-10.8-21.7-21.7-32.5-32.5c-5.3,10.1-10.7,20.2-16,30.3c13.2,13.2,26.5,26.5,39.7,39.7
	C463.8,342.1,466.8,329.6,469.7,317.1z"/>
<text transform="matrix(0.5455 0.5455 -0.7071 0.7071 348.2402 282.5374)" class="st4 st5 st6">55%</text>
<text transform="matrix(0.5452 -0.5452 0.7071 0.7071 338.1684 493.17)" class="st4 st5 st7">60%</text>
<rect x="308.5" y="59.2" transform="matrix(0.7071 -0.7071 0.7071 0.7071 84.1833 367.8422)" class="st0" width="355.2" height="46.1"/>
<rect x="400.2" y="215.2" transform="matrix(0.7071 -0.7071 0.7071 0.7071 -44.5399 368.7484)" class="st8" width="45.4" height="45.8"/>
<rect x="377.9" y="95.5" transform="matrix(0.7071 -0.7071 0.7071 0.7071 102.4949 484.2485)" class="st1" width="515.8" height="45.9"/>
<polygon class="st8" points="355.7,370 339.8,354.2 339.8,354.2 291.6,305.9 -66.3,663.7 -18,712 -16,710 -0.2,725.8 "/>
<polygon class="st8" points="400.1,293.8 367.8,261.4 360.6,254.3 330.4,284.4 337.6,291.6 370,324 377.1,331.1 407.3,301 "/>
<path class="st9" d="M377,331c-7.7-7.7-15.5-15.5-23.3-23.3s-15.5-15.5-23.3-23.3c-13,7.1-25.9,14.3-38.9,21.4
	c5.3,5.3,10.5,10.5,15.8,15.8l0,0c5.4,5.4,10.8,10.8,16.2,16.2s10.8,10.8,16.2,16.2l0,0c5.3,5.3,10.5,10.5,15.8,15.8
	C362.8,357,369.9,344,377,331z"/>
<path class="st9" d="M423.3,270.6L423.3,270.6c-5.4-5.4-10.8-10.8-16.2-16.2s-10.8-10.8-16.2-16.2l0,0c-0.1-0.1-0.1-0.1-0.2-0.2
	c-10.1,5.3-20.2,10.6-30.4,15.9c2.5,2.5,4.9,4.9,7.4,7.4c10.8,10.8,21.6,21.6,32.4,32.4c2.5,2.5,4.9,4.9,7.4,7.4
	c5.3-10.1,10.6-20.2,15.9-30.4C423.4,270.8,423.3,270.7,423.3,270.6z"/>
<rect x="383.5" y="65.9" transform="matrix(0.7071 -0.7071 0.7071 0.7071 104.6994 430.4612)" class="st8" width="376.9" height="45.8"/>
<text transform="matrix(0.5452 -0.5452 0.7071 0.7071 269.1972 424.1988)" class="st4 st5 st7">55%</text>
<text transform="matrix(0.5452 -0.5452 0.7071 0.7071 197.4369 350.215)" class="st4 st5 st7">65%</text>
</svg>
