<?xml version="1.0" encoding="utf-8"?>
<!-- Generator: Adobe Illustrator 16.0.0, SVG Export Plug-In . SVG Version: 6.00 Build 0)  -->
<!DOCTYPE svg PUBLIC "-//W3C//DTD SVG 1.1//EN" "http://www.w3.org/Graphics/SVG/1.1/DTD/svg11.dtd">
<svg version="1.1" id="Слой_1" xmlns="http://www.w3.org/2000/svg" xmlns:xlink="http://www.w3.org/1999/xlink" x="0px" y="0px" width="25.083px" height="23.854px" viewBox="0 0 25.083 23.854" enable-background="new 0 0 25.083 23.854" xml:space="preserve"><path fill="#1A1A1A" d="M24.7,22.439l-6.706-6.705c1.352-1.662,2.165-3.776,2.165-6.078c0-5.323-4.34-9.655-9.673-9.655	S0.815,4.332,0.815,9.656c0,5.324,4.338,9.657,9.671,9.657c2.308,0,4.428-0.813,6.093-2.166l6.706,6.707L24.7,22.439z	 M10.486,17.313c-4.23,0-7.671-3.435-7.671-7.657C2.815,5.434,6.256,2,10.486,2c4.231,0,7.673,3.434,7.673,7.655	S14.717,17.313,10.486,17.313z"></path></svg>