<?xml version="1.0" standalone="no"?>
<!DOCTYPE svg PUBLIC "-//W3C//DTD SVG 20010904//EN"
 "http://www.w3.org/TR/2001/REC-SVG-20010904/DTD/svg10.dtd">
<svg version="1.0" xmlns="http://www.w3.org/2000/svg"
 width="600.000000pt" height="600.000000pt" viewBox="0 0 600.000000 600.000000"
 preserveAspectRatio="xMidYMid meet">
<metadata>
Created by potrace 1.14, written by Peter Selinger 2001-2017
</metadata>
<g transform="translate(0.000000,600.000000) scale(0.100000,-0.100000)"
fill="#000000" stroke="none">
<path d="M2809 5746 c-2 -2 -35 -7 -74 -10 -135 -13 -157 -16 -283 -41 -413
-83 -784 -252 -1132 -516 -222 -167 -437 -397 -601 -640 -207 -306 -372 -710
-423 -1034 -2 -16 -8 -50 -11 -75 -4 -25 -9 -54 -11 -64 -26 -138 -25 -610 1
-748 3 -13 7 -34 10 -48 2 -14 7 -43 10 -65 6 -42 43 -202 69 -296 47 -168
163 -435 265 -607 36 -61 123 -195 131 -202 3 -3 17 -21 30 -40 72 -106 284
-336 410 -444 429 -369 978 -602 1541 -653 181 -17 512 -8 669 17 36 6 79 13
95 16 17 3 37 7 45 9 8 2 26 6 40 9 99 17 372 103 470 148 192 88 295 144 420
228 475 319 816 773 996 1326 31 97 66 223 79 289 20 103 36 197 41 240 3 28
7 59 9 70 9 42 19 226 19 355 1 148 -7 248 -29 373 -8 45 -18 99 -21 120 l-7
37 -1283 0 -1284 0 2 -532 3 -533 733 0 c543 0 732 -3 732 -11 0 -7 -12 -52
-26 -100 -45 -157 -148 -352 -243 -459 -114 -128 -263 -246 -401 -315 -339
-171 -805 -221 -1195 -127 -52 13 -143 40 -170 52 -16 7 -50 21 -75 31 -126
51 -283 147 -399 244 -72 60 -183 171 -220 220 -14 19 -29 37 -32 40 -4 3 -34
47 -68 99 -56 86 -84 138 -140 262 -57 128 -104 316 -118 469 -61 685 285
1310 894 1614 136 68 219 97 363 130 233 52 467 54 690 6 168 -36 357 -110
478 -186 29 -19 54 -34 57 -34 3 0 35 -22 73 -50 38 -27 72 -50 76 -50 4 0
185 178 402 396 l396 395 -34 30 c-65 58 -222 173 -322 236 -318 200 -692 339
-1051 392 -38 6 -88 13 -110 16 -46 7 -480 17 -486 11z"/>
</g>
</svg>
