<?xml version="1.0" encoding="utf-8"?>
<!-- Generator: Adobe Illustrator 19.0.0, SVG Export Plug-In . SVG Version: 6.00 Build 0)  -->
<svg version="1.1" id="Слой_1" xmlns="http://www.w3.org/2000/svg" xmlns:xlink="http://www.w3.org/1999/xlink" x="0px" y="0px"
	 width="121px" height="50px" viewBox="0 0 121 50" enable-background="new 0 0 121 50" xml:space="preserve">
<rect x="10.7104664" y="-0.0265112" transform="matrix(-0.6981179 -0.7159828 0.7159828 -0.6981179 13.9687653 38.289814)" fill="#865D9D" width="8.6920881" height="32.4531441"/>
<rect x="16.6275673" y="13.5504293" transform="matrix(-0.6981216 -0.7159792 0.7159792 -0.6981216 16.5319767 60.2786369)" fill="#529857" width="8.692132" height="26.2073975"/>
<rect x="26.3197308" y="19.1874218" transform="matrix(-0.6981179 -0.7159828 0.7159828 -0.6981179 27.6875763 79.794426)" fill="#48B4D1" width="8.6920881" height="29.7455845"/>
<g>
	<g>
		<path fill="#343434" d="M63.046875,5.4990234h4.7617188l-6.4482422,16.3540039l6.4482422,13.1499023H63.171875
			l-6.0688477-12.8549805v12.8549805h-4.6362305V5.4990234h4.6362305v9.0620117l1.4331055,2.6977539L63.046875,5.4990234z"/>
		<path fill="#343434" d="M68.5664063,30.7880859h4.8476563V5.4990234h4.6357422v25.2890625h4.8476563v4.2148438H68.5664063
			V30.7880859z"/>
		<path fill="#343434" d="M83.5712891,30.7880859h4.8476563V5.4990234h4.6357422v25.2890625h4.8476563v4.2148438H83.5712891
			V30.7880859z"/>
		<path fill="#343434" d="M108.9873047,16.5v-4.2148438c0-1.0683594-0.2177734-1.8125-0.6533203-2.2338867
			c-0.4365234-0.421875-1.0185547-0.6323242-1.7490234-0.6323242c-0.7314453,0-1.3144531,0.2104492-1.7490234,0.6323242
			c-0.4365234,0.4213867-0.6533203,1.1655273-0.6533203,2.2338867v15.9316406c0,1.0683594,0.2167969,1.8193359,0.6533203,2.2558594
			c0.4345703,0.4345703,1.0175781,0.6533203,1.7490234,0.6533203c0.7304688,0,1.3125-0.21875,1.7490234-0.6533203
			c0.4355469-0.4365234,0.6533203-1.1875,0.6533203-2.2558594v-3.1611328h4.3837891v2.8662109
			c0,2.3886719-0.5839844,4.2216797-1.75,5.5009766c-1.1660156,1.2783203-2.8867188,1.9179688-5.1630859,1.9179688
			c-2.2753906,0-3.9970703-0.6396484-5.1630859-1.9179688c-1.1660156-1.2792969-1.7490234-3.1123047-1.7490234-5.5009766V12.5800781
			c0-2.3886719,0.5830078-4.222168,1.7490234-5.5004883c1.1660156-1.2788086,2.8876953-1.9179688,5.1630859-1.9179688
			c2.2763672,0,3.9970703,0.6391602,5.1630859,1.9179688c1.1660156,1.2783203,1.75,3.1118164,1.75,5.5004883V16.5H108.9873047z"/>
	</g>
</g>
<g>
	<path fill="#DADADA" d="M4.5834961,25.2275391c-0.269043-0.2758789-0.4106445-0.5463867-0.4238281-0.8139648
		c-0.0141602-0.2670898,0.1118164-0.53125,0.3774414-0.7910156c0.25-0.2446289,0.5078125-0.3588867,0.7734375-0.34375
		c0.2651367,0.0151367,0.5268555,0.1547852,0.7836914,0.4165039l0.0810547,0.0839844l-0.4819336,0.4711914l-0.1132813-0.1162109
		c-0.1142578-0.1171875-0.21875-0.1767578-0.3139648-0.1782227c-0.0942383-0.0009766-0.1821289,0.0385742-0.262207,0.1166992
		c-0.0893555,0.0878906-0.1323242,0.1831055-0.1269531,0.2871094s0.0825195,0.2333984,0.2333984,0.3876953l0.5795898,0.5932617
		c-0.097168-0.2792969-0.0332031-0.5292969,0.1923828-0.7495117c0.1884766-0.184082,0.3916016-0.2587891,0.609375-0.2250977
		c0.2177734,0.0351563,0.4448242,0.1728516,0.6801758,0.4140625l0.5800781,0.5927734
		c0.2563477,0.2617188,0.3867188,0.5283203,0.3916016,0.7988281s-0.1186523,0.5283203-0.3686523,0.7724609
		c-0.25,0.2451172-0.5097656,0.3613281-0.7802734,0.3505859c-0.2700195-0.0107422-0.5336914-0.1474609-0.7900391-0.4091797
		L4.5834961,25.2275391z M6.1264648,25.2578125c-0.0800781,0.0791016-0.1206055,0.1660156-0.1220703,0.2607422
		C6.003418,25.6132813,6.0600586,25.71875,6.1748047,25.8359375l0.5708008,0.5839844
		c0.1147461,0.1171875,0.2182617,0.1757813,0.3120117,0.1757813c0.0927734-0.0009766,0.1796875-0.0400391,0.2597656-0.1191406
		c0.0805664-0.078125,0.1220703-0.1640625,0.125-0.2568359c0.0019531-0.09375-0.0537109-0.1992188-0.168457-0.3164063
		L6.703125,25.3193359c-0.1147461-0.1171875-0.2192383-0.1757813-0.3139648-0.1767578
		C6.2949219,25.1416016,6.2070313,25.1796875,6.1264648,25.2578125z"/>
	<path fill="#DADADA" d="M8.2670898,24.3432617l0.2944336,0.3007813c0.1147461,0.1171875,0.2182617,0.1762695,0.3120117,0.1762695
		c0.0927734-0.0009766,0.1796875-0.0400391,0.2597656-0.1186523c0.0805664-0.0786133,0.1220703-0.1645508,0.125-0.2573242
		c0.0019531-0.09375-0.0537109-0.1992188-0.168457-0.3164063l-0.6977539-0.7138672
		c-0.1147461-0.1171875-0.2192383-0.1757813-0.3139648-0.1767578c-0.0942383-0.0009766-0.1816406,0.0380859-0.262207,0.1166992
		c-0.0800781,0.0786133-0.1210938,0.1645508-0.1225586,0.2592773c-0.0009766,0.0947266,0.0556641,0.199707,0.1704102,0.3168945
		l0.0957031,0.0986328L7.4780273,24.5L5.730957,22.5273438l1.34375-1.3129883l0.4536133,0.4638672l-0.8847656,0.8647461
		l0.7143555,0.8144531c-0.0585938-0.2509766,0.0126953-0.4750977,0.2133789-0.6713867
		c0.1884766-0.184082,0.3916016-0.2587891,0.609375-0.2246094c0.2182617,0.034668,0.4453125,0.1733398,0.6806641,0.4135742
		l0.706543,0.7226563c0.2563477,0.2617188,0.3891602,0.5263672,0.3984375,0.7924805
		c0.0092773,0.265625-0.1113281,0.5209961-0.3613281,0.7651367C9.3544922,25.4003906,9.097168,25.5146484,8.8310547,25.5
		c-0.2651367-0.015625-0.5263672-0.1552734-0.7827148-0.4169922l-0.2626953-0.2685547L8.2670898,24.3432617z"/>
	<path fill="#DADADA" d="M7.953125,21.3256836c-0.1630859-0.1669922-0.2460938-0.3359375-0.2509766-0.5073242
		c-0.0039063-0.1713867,0.0742188-0.3354492,0.2348633-0.4926758c0.1606445-0.1567383,0.3266602-0.230957,0.4970703-0.2226563
		c0.1713867,0.0083008,0.3383789,0.0952148,0.5014648,0.262207l1.0415039,1.0654297
		c0.1635742,0.1669922,0.2460938,0.3359375,0.2509766,0.5073242c0.0043945,0.1713867-0.0742188,0.3344727-0.2348633,0.4912109
		c-0.1606445,0.1572266-0.3261719,0.2324219-0.4970703,0.2241211c-0.1713867-0.0083008-0.3378906-0.0952148-0.5014648-0.262207
		L7.953125,21.3256836z M9.3417969,22.097168c0.1328125,0.1357422,0.2548828,0.1489258,0.3662109,0.0400391
		c0.0522461-0.0512695,0.0776367-0.1069336,0.074707-0.168457c-0.0019531-0.0610352-0.0380859-0.1259766-0.1074219-0.1972656
		l-1.0869141-1.1123047c-0.0698242-0.0712891-0.1347656-0.1088867-0.1958008-0.1123047
		c-0.0610352-0.0039063-0.1176758,0.0195313-0.1699219,0.0708008c-0.1113281,0.1088867-0.1010742,0.2314453,0.0322266,0.3671875
		L9.3417969,22.097168z M9.237793,19.0996094l0.3012695-0.2944336l1.8920898,4.4931641l-0.3012695,0.2939453L9.237793,19.0996094z
		 M10.7197266,20.9394531c-0.1625977-0.1660156-0.2460938-0.3354492-0.25-0.5058594
		c-0.0043945-0.1713867,0.0732422-0.3354492,0.2338867-0.4926758c0.1606445-0.1567383,0.3271484-0.2314453,0.4980469-0.2231445
		c0.1704102,0.0073242,0.3378906,0.0957031,0.5004883,0.2617188l1.0415039,1.0654297
		c0.1630859,0.1669922,0.2470703,0.3364258,0.2514648,0.5068359c0.0039063,0.1713867-0.074707,0.3359375-0.2353516,0.4926758
		c-0.1606445,0.1572266-0.3261719,0.2314453-0.496582,0.2231445c-0.1708984-0.0073242-0.3388672-0.0957031-0.5019531-0.2626953
		L10.7197266,20.9394531z M12.1083984,21.7114258c0.1328125,0.1357422,0.2548828,0.1499023,0.3662109,0.0410156
		c0.0527344-0.0512695,0.0776367-0.1079102,0.0751953-0.1689453c-0.0019531-0.0605469-0.0380859-0.1269531-0.1079102-0.1982422
		l-1.0864258-1.1123047c-0.0693359-0.0703125-0.1347656-0.1074219-0.1962891-0.1113281
		c-0.0605469-0.003418-0.1176758,0.0200195-0.1704102,0.0712891c-0.1113281,0.1088867-0.1000977,0.2314453,0.0327148,0.3662109
		L12.1083984,21.7114258z"/>
</g>
<g>
	<path fill="#DADADA" d="M14.6635742,34.1728516l0.2944336,0.3007813c0.1142578,0.1171875,0.2182617,0.1757813,0.3120117,0.1757813
		c0.0927734-0.0009766,0.1791992-0.0400391,0.2597656-0.1181641c0.0800781-0.0791016,0.1220703-0.1650391,0.125-0.2578125
		c0.0019531-0.09375-0.0541992-0.1992188-0.168457-0.3164063l-0.6977539-0.7138672
		c-0.1147461-0.1171875-0.2192383-0.1757813-0.3144531-0.1777344c-0.0942383,0-0.1816406,0.0380859-0.2617188,0.1171875
		c-0.0805664,0.078125-0.121582,0.1650391-0.1230469,0.2587891c-0.0004883,0.0957031,0.0561523,0.2011719,0.1708984,0.3183594
		l0.0952148,0.0976563l-0.4819336,0.4707031l-1.7460938-1.9707031l1.34375-1.3134766l0.453125,0.4638672l-0.8852539,0.8652344
		l0.7148438,0.8134766c-0.0585938-0.2519531,0.0131836-0.4746094,0.2138672-0.6708984
		c0.1884766-0.1835938,0.3916016-0.2587891,0.609375-0.2246094c0.2182617,0.0351563,0.4448242,0.171875,0.6801758,0.4130859
		l0.706543,0.7226563c0.2563477,0.2617188,0.3896484,0.5273438,0.3989258,0.7929688s-0.1113281,0.5205078-0.3618164,0.765625
		c-0.25,0.2441406-0.5073242,0.359375-0.7734375,0.34375c-0.2651367-0.015625-0.5268555-0.1552734-0.7832031-0.4169922
		l-0.2626953-0.2685547L14.6635742,34.1728516z"/>
	<path fill="#DADADA" d="M16.4980469,32.3798828l0.2944336,0.3007813c0.1142578,0.1171875,0.2182617,0.1757813,0.3120117,0.1757813
		c0.0927734-0.0009766,0.1791992-0.0400391,0.2597656-0.1191406c0.0800781-0.078125,0.1220703-0.1640625,0.125-0.2568359
		c0.0019531-0.09375-0.0541992-0.1992188-0.168457-0.3164063l-0.6977539-0.7138672
		c-0.1147461-0.1171875-0.2192383-0.1757813-0.3144531-0.1777344c-0.0942383,0-0.1816406,0.0380859-0.2617188,0.1162109
		c-0.0805664,0.0791016-0.121582,0.1660156-0.1230469,0.2597656c-0.0004883,0.0957031,0.0561523,0.2011719,0.1708984,0.3183594
		l0.0952148,0.0976563l-0.4819336,0.4707031l-1.7460938-1.9716797L15.3056641,29.25l0.453125,0.4638672l-0.8852539,0.8652344
		l0.7148438,0.8144531c-0.0585938-0.2519531,0.0131836-0.4746094,0.2138672-0.6708984
		c0.1884766-0.1845703,0.3916016-0.2587891,0.609375-0.2255859c0.2182617,0.0351563,0.4448242,0.1728516,0.6801758,0.4140625
		l0.706543,0.7226563c0.2563477,0.2617188,0.3896484,0.5263672,0.3989258,0.7919922
		c0.0092773,0.2666016-0.1113281,0.5214844-0.3618164,0.765625c-0.25,0.2451172-0.5073242,0.359375-0.7734375,0.3447266
		c-0.2651367-0.015625-0.5268555-0.1552734-0.7832031-0.4169922l-0.2626953-0.2685547L16.4980469,32.3798828z"/>
	<path fill="#DADADA" d="M16.184082,29.3613281c-0.1630859-0.1669922-0.246582-0.3349609-0.2514648-0.5068359
		c-0.0039063-0.1708984,0.074707-0.3349609,0.2353516-0.4921875c0.1601563-0.1572266,0.3256836-0.2314453,0.496582-0.2236328
		c0.171875,0.0087891,0.3383789,0.0957031,0.5014648,0.2626953l1.0415039,1.0654297
		c0.1630859,0.1669922,0.246582,0.3359375,0.2514648,0.5068359c0.003418,0.1708984-0.074707,0.3349609-0.2348633,0.4921875
		c-0.1606445,0.1572266-0.3266602,0.2314453-0.4970703,0.2236328c-0.171875-0.0078125-0.3383789-0.0957031-0.5014648-0.2626953
		L16.184082,29.3613281z M17.5722656,30.1328125c0.1333008,0.1367188,0.2553711,0.1494141,0.3666992,0.0410156
		c0.0522461-0.0517578,0.0771484-0.1074219,0.074707-0.1689453s-0.0380859-0.1269531-0.1079102-0.1982422l-1.0864258-1.1113281
		c-0.0698242-0.0712891-0.1352539-0.109375-0.1958008-0.1123047c-0.0615234-0.0039063-0.1181641,0.0195313-0.1704102,0.0712891
		c-0.1113281,0.1083984-0.1005859,0.2314453,0.0327148,0.3671875L17.5722656,30.1328125z M17.46875,27.1357422l0.3012695-0.2949219
		l1.8916016,4.4931641l-0.3007813,0.2949219L17.46875,27.1357422z M18.9506836,28.9755859
		c-0.1625977-0.1660156-0.2460938-0.3359375-0.2504883-0.5068359c-0.0039063-0.1708984,0.0737305-0.3359375,0.234375-0.4921875
		c0.1606445-0.1572266,0.3271484-0.2304688,0.4975586-0.2236328c0.1708984,0.0087891,0.3378906,0.0966797,0.5004883,0.2626953
		l1.0415039,1.0654297c0.1630859,0.1669922,0.2470703,0.3359375,0.2509766,0.5068359
		c0.0043945,0.171875-0.0737305,0.3349609-0.234375,0.4921875c-0.1606445,0.15625-0.3266602,0.2314453-0.4975586,0.2236328
		c-0.1704102-0.0087891-0.3378906-0.0957031-0.5009766-0.2626953L18.9506836,28.9755859z M20.3388672,29.7480469
		c0.1333008,0.1357422,0.2548828,0.1484375,0.3662109,0.0400391c0.0522461-0.0517578,0.0776367-0.1074219,0.0756836-0.1679688
		c-0.0029297-0.0625-0.0385742-0.1269531-0.1083984-0.1982422l-1.0869141-1.1123047
		c-0.0688477-0.0703125-0.1347656-0.109375-0.1953125-0.1123047s-0.1181641,0.0195313-0.1704102,0.0712891
		C19.1083984,28.3769531,19.1196289,28.5,19.2519531,28.6357422L20.3388672,29.7480469z"/>
</g>
<g>
	<path fill="#DADADA" d="M21.0439453,42c-0.269043-0.2744141-0.4101563-0.5458984-0.4238281-0.8125
		c-0.0136719-0.2685547,0.1118164-0.53125,0.3774414-0.7910156c0.2504883-0.2441406,0.5083008-0.359375,0.7734375-0.34375
		c0.265625,0.0146484,0.5268555,0.1533203,0.7836914,0.4160156l0.0810547,0.0830078l-0.4819336,0.4716797l-0.1132813-0.1162109
		c-0.1147461-0.1171875-0.2192383-0.1757813-0.3139648-0.1777344c-0.0942383,0-0.1816406,0.0380859-0.2617188,0.1162109
		c-0.0898438,0.0878906-0.1323242,0.1826172-0.1269531,0.2880859c0.0048828,0.1035156,0.0825195,0.2324219,0.2333984,0.3867188
		l0.5795898,0.5927734c-0.0976563-0.2792969-0.0332031-0.5283203,0.1923828-0.7490234
		c0.1879883-0.1845703,0.3916016-0.2587891,0.609375-0.2236328c0.2177734,0.0332031,0.4443359,0.1708984,0.6796875,0.4121094
		l0.5800781,0.59375c0.2563477,0.2617188,0.387207,0.5292969,0.3916016,0.7988281
		c0.0048828,0.2714844-0.1181641,0.5273438-0.3681641,0.7724609c-0.2504883,0.2441406-0.5102539,0.3623047-0.7807617,0.3505859
		c-0.2700195-0.0097656-0.5336914-0.1474609-0.7900391-0.4091797L21.0439453,42z M22.5869141,42.03125
		c-0.0805664,0.078125-0.1206055,0.1650391-0.1220703,0.2597656c-0.0004883,0.0947266,0.0561523,0.2011719,0.1708984,0.3183594
		l0.5708008,0.5839844c0.1142578,0.1171875,0.2182617,0.1748047,0.3120117,0.1748047
		c0.0927734,0,0.1791992-0.0400391,0.2597656-0.1181641c0.0800781-0.0791016,0.121582-0.1640625,0.1245117-0.2578125
		c0.0019531-0.09375-0.0537109-0.1982422-0.1679688-0.3154297l-0.5708008-0.5839844
		c-0.1147461-0.1171875-0.2197266-0.1767578-0.3149414-0.1777344C22.7548828,41.9140625,22.6669922,41.9521484,22.5869141,42.03125z
		"/>
	<path fill="#DADADA" d="M22.8417969,40.1884766c-0.2568359-0.2626953-0.3876953-0.5292969-0.3920898-0.7988281
		c-0.0043945-0.2705078,0.1181641-0.5283203,0.3686523-0.7724609c0.25-0.2451172,0.5102539-0.3623047,0.7802734-0.3505859
		c0.2700195,0.0097656,0.5336914,0.1464844,0.7905273,0.4091797l1.6484375,1.6865234
		c0.2563477,0.2617188,0.387207,0.5292969,0.3916016,0.7988281c0.0048828,0.2705078-0.1181641,0.5273438-0.3681641,0.7724609
		c-0.2504883,0.2441406-0.5102539,0.3623047-0.7807617,0.3505859c-0.2700195-0.0097656-0.5336914-0.1474609-0.7900391-0.4091797
		L22.8417969,40.1884766z M25.0317383,41.4091797c0.1142578,0.1171875,0.21875,0.1757813,0.3139648,0.1767578
		c0.0942383,0.0009766,0.1821289-0.0371094,0.2626953-0.1152344c0.0800781-0.0791016,0.1201172-0.1660156,0.1220703-0.2607422
		c0-0.0947266-0.0561523-0.2001953-0.1704102-0.3173828l-1.7124023-1.7519531
		c-0.1147461-0.1171875-0.2197266-0.1757813-0.3144531-0.1777344c-0.0942383,0-0.1816406,0.0380859-0.2617188,0.1171875
		c-0.0805664,0.078125-0.1210938,0.1650391-0.1225586,0.2587891c-0.0009766,0.0957031,0.0556641,0.2011719,0.1704102,0.3183594
		L25.0317383,41.4091797z"/>
	<path fill="#DADADA" d="M24.4140625,38.0986328c-0.1630859-0.1669922-0.246582-0.3359375-0.2514648-0.5068359
		c-0.0039063-0.1708984,0.074707-0.3349609,0.2348633-0.4921875c0.1606445-0.1572266,0.3261719-0.2314453,0.4970703-0.2236328
		c0.171875,0.0078125,0.3383789,0.0957031,0.5014648,0.2626953L26.4375,38.2041016
		c0.1630859,0.1669922,0.246582,0.3349609,0.2514648,0.5068359c0.003418,0.1708984-0.074707,0.3349609-0.2353516,0.4921875
		c-0.1601563,0.1572266-0.3261719,0.2314453-0.496582,0.2226563c-0.171875-0.0078125-0.3383789-0.0947266-0.5014648-0.2617188
		L24.4140625,38.0986328z M25.8022461,38.8701172c0.1333008,0.1357422,0.2553711,0.1494141,0.3662109,0.0410156
		c0.0527344-0.0507813,0.0776367-0.1074219,0.0751953-0.1689453c-0.0024414-0.0605469-0.0380859-0.1269531-0.1079102-0.1982422
		l-1.0864258-1.1113281c-0.0698242-0.0712891-0.1352539-0.1083984-0.1958008-0.1123047
		c-0.0615234-0.0039063-0.1181641,0.0205078-0.1708984,0.0712891C24.5717773,37.5,24.5825195,37.6220703,24.7158203,37.7587891
		L25.8022461,38.8701172z M25.6987305,35.8720703L26,35.578125l1.8916016,4.4931641l-0.3012695,0.2939453L25.6987305,35.8720703z
		 M27.1806641,37.7128906c-0.1625977-0.1660156-0.246582-0.3349609-0.2504883-0.5068359
		c-0.0039063-0.1699219,0.0737305-0.3349609,0.234375-0.4921875c0.1601563-0.1572266,0.3266602-0.2304688,0.4975586-0.2226563
		S28,36.5859375,28.1625977,36.7519531l1.0415039,1.0664063c0.1630859,0.1669922,0.2470703,0.3359375,0.2509766,0.5078125
		c0.0039063,0.1699219-0.0742188,0.3339844-0.234375,0.4912109c-0.1606445,0.1572266-0.3266602,0.2314453-0.4975586,0.2236328
		s-0.3378906-0.0947266-0.5009766-0.2617188L27.1806641,37.7128906z M28.5688477,38.484375
		c0.1333008,0.1367188,0.2548828,0.1494141,0.3662109,0.0410156c0.0522461-0.0517578,0.0776367-0.1064453,0.0756836-0.1679688
		c-0.0029297-0.0615234-0.0385742-0.1279297-0.1083984-0.1992188L27.815918,37.046875
		c-0.0693359-0.0703125-0.1352539-0.1083984-0.1958008-0.1123047c-0.0605469-0.0029297-0.1181641,0.0195313-0.1704102,0.0712891
		c-0.1113281,0.1083984-0.1000977,0.2314453,0.0327148,0.3671875L28.5688477,38.484375z"/>
</g>
<g>
	<path fill="#1E1E1C" d="M36.8842773,43.421875l-0.5039063,0.7978516v2.65625h-0.4829102v-7.3486328h0.4829102v3.8847656
		l2.3935547-3.8847656h0.5039063l-2.0996094,3.421875l2.2363281,3.9267578h-0.5039063L36.8842773,43.421875z"/>
	<path fill="#1E1E1C" d="M41.1049805,45.2490234l-0.3671875,1.6269531h-0.440918l1.605957-7.359375h0.7036133l1.6376953,7.359375
		h-0.4829102l-0.3671875-1.6269531H41.1049805z M41.1787109,44.8291016h2.1416016l-1.081543-4.7558594L41.1787109,44.8291016z"/>
	<path fill="#1E1E1C" d="M46.2290039,43.421875l-0.5039063,0.7978516v2.65625h-0.4829102v-7.3486328h0.4829102v3.8847656
		l2.3935547-3.8847656h0.5039063l-2.0996094,3.421875l2.2363281,3.9267578h-0.5039063L46.2290039,43.421875z"/>
	<path fill="#1E1E1C" d="M53.0112305,46.8759766V39.96875h-1.5009766v-0.4414063h3.4853516V39.96875h-1.5009766v6.9072266
		H53.0112305z"/>
	<path fill="#1E1E1C" d="M55.9418945,41.3222656c0-1.0703125,0.4931641-1.8574219,1.6054688-1.8574219
		c1.1347656,0,1.6279297,0.7871094,1.6279297,1.8574219v3.7587891c0,1.0703125-0.4931641,1.8583984-1.6279297,1.8583984
		c-1.1123047,0-1.6054688-0.7880859-1.6054688-1.8583984V41.3222656z M56.4243164,45.1123047
		c0,0.7978516,0.3154297,1.3857422,1.1230469,1.3857422c0.8193359,0,1.1445313-0.5878906,1.1445313-1.3857422v-3.8212891
		c0-0.7978516-0.3251953-1.3857422-1.1445313-1.3857422c-0.8076172,0-1.1230469,0.5878906-1.1230469,1.3857422V45.1123047z"/>
	<path fill="#1E1E1C" d="M61.6953125,39.96875l-0.1884766,5.1123047c-0.0419922,0.9970703-0.2099609,1.7841797-1.2915039,1.8056641
		h-0.0947266v-0.4414063c0.8291016,0,0.8823242-0.6191406,0.902832-1.3535156l0.2207031-5.5644531h2.7402344v7.3486328h-0.4931641
		V39.96875H61.6953125z"/>
	<path fill="#1E1E1C" d="M66.4833984,42.5507813c1.1757813,0,1.7109375,0.5771484,1.7109375,1.7421875v0.7988281
		c0,1.0703125-0.4404297,1.7841797-1.5849609,1.7841797h-1.5117188v-7.3486328h0.4833984v3.0234375H66.4833984z
		 M66.609375,46.4355469c0.8193359,0,1.1025391-0.5146484,1.1025391-1.3125v-0.8613281
		c0-0.8925781-0.3779297-1.2695313-1.2285156-1.2695313h-0.9023438v3.4433594H66.609375z"/>
	<path fill="#1E1E1C" d="M70.2314453,43.421875l-0.5039063,0.7978516v2.65625h-0.4833984v-7.3486328h0.4833984v3.8847656
		l2.3925781-3.8847656h0.5039063l-2.0996094,3.421875l2.2363281,3.9267578h-0.5039063L70.2314453,43.421875z"/>
	<path fill="#1E1E1C" d="M73.7177734,41.3222656c0-1.0703125,0.4931641-1.8574219,1.6054688-1.8574219
		c1.1347656,0,1.6279297,0.7871094,1.6279297,1.8574219v3.7587891c0,1.0703125-0.4931641,1.8583984-1.6279297,1.8583984
		c-1.1123047,0-1.6054688-0.7880859-1.6054688-1.8583984V41.3222656z M74.2001953,45.1123047
		c0,0.7978516,0.3154297,1.3857422,1.1230469,1.3857422c0.8193359,0,1.1445313-0.5878906,1.1445313-1.3857422v-3.8212891
		c0-0.7978516-0.3251953-1.3857422-1.1445313-1.3857422c-0.8076172,0-1.1230469,0.5878906-1.1230469,1.3857422V45.1123047z"/>
	<path fill="#1E1E1C" d="M78.2744141,46.8759766h-0.1582031v-0.9238281h0.4628906v0.8818359l-0.3046875,0.8398438h-0.2099609
		L78.2744141,46.8759766z"/>
	<path fill="#1E1E1C" d="M82.9472656,46.8759766V39.96875h-1.5009766v-0.4414063h3.4853516V39.96875h-1.5009766v6.9072266
		H82.9472656z"/>
	<path fill="#1E1E1C" d="M86.6113281,45.2490234l-0.3671875,1.6269531h-0.4404297l1.6054688-7.359375h0.703125l1.6386719,7.359375
		h-0.4833984l-0.3671875-1.6269531H86.6113281z M86.6845703,44.8291016h2.1425781l-1.0820313-4.7558594L86.6845703,44.8291016z"/>
	<path fill="#1E1E1C" d="M91.7353516,43.421875l-0.5039063,0.7978516v2.65625h-0.4824219v-7.3486328h0.4824219v3.8847656
		l2.3945313-3.8847656h0.5039063l-2.0996094,3.421875l2.2353516,3.9267578h-0.5039063L91.7353516,43.421875z"/>
	<path fill="#1E1E1C" d="M100.2832031,41.3222656v0.609375h-0.4619141v-0.640625
		c0-0.7871094-0.3046875-1.3857422-1.1123047-1.3857422c-0.8085938,0-1.1132813,0.5986328-1.1132813,1.3857422v3.8212891
		c0,0.7871094,0.3046875,1.375,1.1132813,1.375c0.8076172,0,1.1123047-0.5878906,1.1123047-1.375v-0.8710938h0.4619141v0.8398438
		c0,1.0595703-0.4619141,1.8583984-1.5849609,1.8583984s-1.5849609-0.7988281-1.5849609-1.8583984v-3.7587891
		c0-1.0605469,0.4619141-1.8574219,1.5849609-1.8574219S100.2832031,40.2617188,100.2832031,41.3222656z"/>
	<path fill="#1E1E1C" d="M102.8564453,39.5273438c1.1337891,0,1.5742188,0.7138672,1.5742188,1.7851563v0.796875
		c0,1.1660156-0.5351563,1.7431641-1.7001953,1.7431641h-0.9130859v3.0234375h-0.4833984v-7.3486328H102.8564453z
		 M102.7304688,43.4121094c0.8505859,0,1.2177734-0.3789063,1.2177734-1.2705078v-0.8613281
		c0-0.7978516-0.2734375-1.3115234-1.0917969-1.3115234h-1.0390625v3.4433594H102.7304688z"/>
	<path fill="#1E1E1C" d="M106.1210938,45.2490234l-0.3671875,1.6269531h-0.4404297l1.6054688-7.359375h0.703125l1.6386719,7.359375
		h-0.4833984l-0.3671875-1.6269531H106.1210938z M106.1943359,44.8291016h2.1425781l-1.0820313-4.7558594L106.1943359,44.8291016z"
		/>
	<path fill="#1E1E1C" d="M113.4082031,41.3222656v0.1894531c0,0.7246094-0.3564453,1.3017578-0.9970703,1.5117188
		c0.671875,0.1884766,0.9970703,0.7763672,0.9970703,1.4902344v0.5673828c0,1.0703125-0.4619141,1.8583984-1.5849609,1.8583984
		s-1.5859375-0.7880859-1.5859375-1.8583984v-0.609375h0.4628906v0.640625c0,0.7871094,0.3037109,1.3857422,1.1123047,1.3857422
		s1.1123047-0.5878906,1.1123047-1.4277344v-0.5664063c0-0.7460938-0.4199219-1.2392578-1.1328125-1.2392578h-0.4101563v-0.4404297
		h0.4414063c0.6503906,0,1.1015625-0.5361328,1.1015625-1.21875v-0.2724609c0-0.8398438-0.3037109-1.4277344-1.1123047-1.4277344
		s-1.1230469,0.5878906-1.1230469,1.3857422v0.3984375h-0.4414063V41.3125c0-1.0605469,0.4521484-1.8476563,1.5751953-1.8476563
		S113.4082031,40.2519531,113.4082031,41.3222656z"/>
	<path fill="#1E1E1C" d="M116.3486328,45.5117188c-0.2421875,0.8808594-0.5458984,1.40625-1.6171875,1.3642578v-0.4306641
		c0.671875,0.0107422,0.9140625-0.2832031,1.0917969-0.8603516l0.3046875-0.8925781l-1.7636719-5.1650391h0.4931641
		l0.8613281,2.5927734l0.6396484,1.9638672l0.5878906-1.9746094l0.7988281-2.5820313h0.5039063L116.3486328,45.5117188z"/>
	<path fill="#1E1E1C" d="M119.6982422,45.9521484v0.9238281h-0.4726563v-0.9238281H119.6982422z"/>
</g>
</svg>
